# xmcd CD database file
#
# Track frame offsets:
#	150
#	21312
#	40175
#
# Disc length: 815 seconds
#
# Revision: 0
# Processed by: cddbd v1.5.1PL0 Copyright (c) Steve Scherf et al.
# Submitted via: CDex 1.51
#
DISCID=1d032d03
DTITLE=Nokko - Vivace
DYEAR=1993
DGENRE=Pop
TTITLE0=Vivace
TTITLE1=Don't Hold Back
TTITLE2=Vivace（オリジナル・カラオケ）　
EXTD=YEAR: 1993
EXTT0=
EXTT1=
EXTT2=
PLAYORDER=
